M48
METRIC,TZ
T1C0.700
T2C0.762
T3C1.016
T4C5.000
%
G90
G05
T1
X30500Y12900
X30550Y15250
X41150Y10550
X41300Y13400
X46450Y15350
X53850Y15300
T2
X24850Y24220
X27390Y24220
X29930Y24220
X32470Y24220
X35010Y24220
X37550Y24220
X49350Y12430
X49350Y7350
X49350Y2270
X54430Y9890
X54430Y4810
T3
X16100Y17460
X16100Y14920
X16100Y12380
X16100Y9840
X16100Y7300
X30700Y4250
X30700Y1710
X35100Y4250
X35100Y1710
X42200Y3500
T4
X8600Y13700
X61800Y13600
T0
M30
