G04 #@! TF.FileFunction,Copper,L2,Bot,Signal*
%FSLAX46Y46*%
G04 Gerber Fmt 4.6, Leading zero omitted, Abs format (unit mm)*
G04 Created by KiCad (PCBNEW 4.0.6) date Monday, 19 December 2022 'PMt' 12:32:37*
%MOMM*%
%LPD*%
G01*
G04 APERTURE LIST*
%ADD10C,0.100000*%
%ADD11R,2.032000X2.032000*%
%ADD12O,2.032000X2.032000*%
%ADD13R,2.032000X1.727200*%
%ADD14O,2.032000X1.727200*%
%ADD15O,1.524000X2.500000*%
%ADD16C,10.000000*%
%ADD17R,2.235200X2.235200*%
%ADD18C,2.000000*%
%ADD19C,1.000000*%
%ADD20C,0.500000*%
G04 APERTURE END LIST*
D10*
D11*
X30700000Y4250000D03*
D12*
X30700000Y1710000D03*
D11*
X35100000Y4250000D03*
D12*
X35100000Y1710000D03*
D13*
X16100000Y7300000D03*
D14*
X16100000Y9840000D03*
X16100000Y12380000D03*
X16100000Y14920000D03*
X16100000Y17460000D03*
D15*
X32470000Y24220000D03*
X35010000Y24220000D03*
X37550000Y24220000D03*
X29930000Y24220000D03*
X27390000Y24220000D03*
X24850000Y24220000D03*
D16*
X8600000Y13700000D03*
X61800000Y13600000D03*
D17*
X42200000Y3500000D03*
D18*
X49350000Y7350000D03*
X54430000Y9890000D03*
X49350000Y12430000D03*
X54430000Y4810000D03*
X49350000Y2270000D03*
X53850000Y15300000D03*
X46450000Y15350000D03*
X30500000Y12900000D03*
X30550000Y15250000D03*
X41300000Y13400000D03*
X41150000Y10550000D03*
D19*
X53450000Y10870000D02*
X54430000Y9890000D01*
X53450000Y14900000D02*
X53450000Y10870000D01*
X53850000Y15300000D02*
X53450000Y14900000D01*
X46450000Y15350000D02*
X41950000Y15350000D01*
X41950000Y15350000D02*
X41000000Y16300000D01*
X49350000Y12430000D02*
X46980000Y12430000D01*
X46980000Y12430000D02*
X46450000Y12960000D01*
X46450000Y12960000D02*
X46450000Y15350000D01*
X49350000Y2270000D02*
X43430000Y2270000D01*
X43430000Y2270000D02*
X42200000Y3500000D01*
X42200000Y3500000D02*
X42200000Y6150000D01*
X42200000Y6150000D02*
X39100000Y9250000D01*
X35100000Y1710000D02*
X40410000Y1710000D01*
X40410000Y1710000D02*
X42200000Y3500000D01*
X39100000Y9250000D02*
X39100000Y16900000D01*
X39100000Y16900000D02*
X39750000Y17550000D01*
X30700000Y1710000D02*
X28240000Y1710000D01*
X20110000Y9840000D02*
X16100000Y9840000D01*
X28240000Y1710000D02*
X20110000Y9840000D01*
X35100000Y1710000D02*
X30700000Y1710000D01*
X35110000Y1700000D02*
X35100000Y1710000D01*
X39100000Y9300000D02*
X39100000Y9250000D01*
X35010000Y24220000D02*
X35010000Y22290000D01*
X35010000Y22290000D02*
X39750000Y17550000D01*
X39750000Y17550000D02*
X41000000Y16300000D01*
X41000000Y16300000D02*
X41010000Y16290000D01*
D20*
X30700000Y12700000D02*
X30700000Y4250000D01*
X30500000Y12900000D02*
X30700000Y12700000D01*
X35100000Y10050000D02*
X35100000Y4250000D01*
X35100000Y10700000D02*
X35100000Y10050000D01*
X31300000Y14500000D02*
X35100000Y10700000D01*
X30550000Y15250000D02*
X31300000Y14500000D01*
X47350000Y7350000D02*
X49350000Y7350000D01*
X41300000Y13400000D02*
X47350000Y7350000D01*
X46890000Y4810000D02*
X54430000Y4810000D01*
X41150000Y10550000D02*
X46890000Y4810000D01*
D19*
G36*
X55000000Y16978890D02*
X54984388Y16994529D01*
X54249570Y17299652D01*
X53453921Y17300346D01*
X52718571Y16996506D01*
X52155471Y16434388D01*
X51850348Y15699570D01*
X51849654Y14903921D01*
X51950000Y14661065D01*
X51950000Y10870000D01*
X52064181Y10295975D01*
X52389340Y9809340D01*
X52429894Y9768786D01*
X52429654Y9493921D01*
X52733494Y8758571D01*
X53295612Y8195471D01*
X54030430Y7890348D01*
X54826079Y7889654D01*
X55000000Y7961517D01*
X55000000Y6738883D01*
X54829570Y6809652D01*
X54033921Y6810346D01*
X53298571Y6506506D01*
X52851285Y6060000D01*
X50888645Y6060000D01*
X51044529Y6215612D01*
X51349652Y6950430D01*
X51350346Y7746079D01*
X51046506Y8481429D01*
X50484388Y9044529D01*
X49749570Y9349652D01*
X48953921Y9350346D01*
X48218571Y9046506D01*
X47819568Y8648199D01*
X45342127Y11125640D01*
X48116351Y11125640D01*
X48187414Y10744773D01*
X48920819Y10428151D01*
X49719563Y10416292D01*
X50462044Y10711002D01*
X50512586Y10744773D01*
X50583649Y11125640D01*
X49350000Y12359289D01*
X48116351Y11125640D01*
X45342127Y11125640D01*
X44407330Y12060437D01*
X47336292Y12060437D01*
X47631002Y11317956D01*
X47664773Y11267414D01*
X48045640Y11196351D01*
X49279289Y12430000D01*
X49420711Y12430000D01*
X50654360Y11196351D01*
X51035227Y11267414D01*
X51351849Y12000819D01*
X51363708Y12799563D01*
X51068998Y13542044D01*
X51035227Y13592586D01*
X50654360Y13663649D01*
X49420711Y12430000D01*
X49279289Y12430000D01*
X48045640Y13663649D01*
X47664773Y13592586D01*
X47348151Y12859181D01*
X47336292Y12060437D01*
X44407330Y12060437D01*
X43299798Y13167968D01*
X43300292Y13734360D01*
X48116351Y13734360D01*
X49350000Y12500711D01*
X50583649Y13734360D01*
X50512586Y14115227D01*
X49779181Y14431849D01*
X48980437Y14443708D01*
X48237956Y14148998D01*
X48187414Y14115227D01*
X48116351Y13734360D01*
X43300292Y13734360D01*
X43300346Y13796079D01*
X42996506Y14531429D01*
X42434388Y15094529D01*
X41699570Y15399652D01*
X40903921Y15400346D01*
X40168571Y15096506D01*
X39605471Y14534388D01*
X39300348Y13799570D01*
X39299654Y13003921D01*
X39603494Y12268571D01*
X39821703Y12049981D01*
X39455471Y11684388D01*
X39150348Y10949570D01*
X39149654Y10153921D01*
X39453494Y9418571D01*
X40015612Y8855471D01*
X40750430Y8550348D01*
X41382437Y8549797D01*
X46006117Y3926116D01*
X46381024Y3675612D01*
X46411646Y3655151D01*
X46890000Y3560000D01*
X47989287Y3560000D01*
X48045638Y3503649D01*
X47664773Y3432586D01*
X47348151Y2699181D01*
X47336292Y1900437D01*
X47624237Y1175000D01*
X37031152Y1175000D01*
X37079151Y1286269D01*
X37090649Y1344089D01*
X36871294Y1660000D01*
X35150000Y1660000D01*
X35150000Y1640000D01*
X35050000Y1640000D01*
X35050000Y1660000D01*
X33328706Y1660000D01*
X33109351Y1344089D01*
X33120849Y1286269D01*
X33168848Y1175000D01*
X32631152Y1175000D01*
X32679151Y1286269D01*
X32690649Y1344089D01*
X32471294Y1660000D01*
X30750000Y1660000D01*
X30750000Y1640000D01*
X30650000Y1640000D01*
X30650000Y1660000D01*
X28928706Y1660000D01*
X28709351Y1344089D01*
X28720849Y1286269D01*
X28768848Y1175000D01*
X15350000Y1175000D01*
X15350000Y5416809D01*
X17116000Y5416809D01*
X17486578Y5486538D01*
X17826931Y5705549D01*
X18055262Y6039722D01*
X18135591Y6436400D01*
X18135591Y8163600D01*
X18065862Y8534178D01*
X17846851Y8874531D01*
X17824225Y8889991D01*
X18000667Y9169963D01*
X18092476Y9497937D01*
X17871228Y9790000D01*
X16150000Y9790000D01*
X16150000Y9770000D01*
X16050000Y9770000D01*
X16050000Y9790000D01*
X16030000Y9790000D01*
X16030000Y9890000D01*
X16050000Y9890000D01*
X16050000Y9910000D01*
X16150000Y9910000D01*
X16150000Y9890000D01*
X17871228Y9890000D01*
X18092476Y10182063D01*
X18000667Y10510037D01*
X17631790Y11095356D01*
X18013638Y11666831D01*
X18155496Y12380000D01*
X18130847Y12503921D01*
X28499654Y12503921D01*
X28803494Y11768571D01*
X29365612Y11205471D01*
X29450000Y11170430D01*
X29450000Y6241561D01*
X29313422Y6215862D01*
X28973069Y5996851D01*
X28744738Y5662678D01*
X28664409Y5266000D01*
X28664409Y3234000D01*
X28734138Y2863422D01*
X28914627Y2582934D01*
X28720849Y2133731D01*
X28709351Y2075911D01*
X28928706Y1760000D01*
X30650000Y1760000D01*
X30650000Y1780000D01*
X30750000Y1780000D01*
X30750000Y1760000D01*
X32471294Y1760000D01*
X32690649Y2075911D01*
X32679151Y2133731D01*
X32483853Y2586458D01*
X32655262Y2837322D01*
X32735591Y3234000D01*
X32735591Y5266000D01*
X32665862Y5636578D01*
X32446851Y5976931D01*
X32112678Y6205262D01*
X31950000Y6238205D01*
X31950000Y11521509D01*
X32194529Y11765612D01*
X32215681Y11816552D01*
X33850000Y10182233D01*
X33850000Y6241561D01*
X33713422Y6215862D01*
X33373069Y5996851D01*
X33144738Y5662678D01*
X33064409Y5266000D01*
X33064409Y3234000D01*
X33134138Y2863422D01*
X33314627Y2582934D01*
X33120849Y2133731D01*
X33109351Y2075911D01*
X33328706Y1760000D01*
X35050000Y1760000D01*
X35050000Y1780000D01*
X35150000Y1780000D01*
X35150000Y1760000D01*
X36871294Y1760000D01*
X37090649Y2075911D01*
X37079151Y2133731D01*
X36883853Y2586458D01*
X37055262Y2837322D01*
X37128300Y3198000D01*
X40074400Y3198000D01*
X40074400Y2181897D01*
X40227859Y1811414D01*
X40511414Y1527859D01*
X40881896Y1374400D01*
X41898000Y1374400D01*
X42150000Y1626400D01*
X42150000Y3450000D01*
X42250000Y3450000D01*
X42250000Y1626400D01*
X42502000Y1374400D01*
X43518104Y1374400D01*
X43888586Y1527859D01*
X44172141Y1811414D01*
X44325600Y2181897D01*
X44325600Y3198000D01*
X44073600Y3450000D01*
X42250000Y3450000D01*
X42150000Y3450000D01*
X40326400Y3450000D01*
X40074400Y3198000D01*
X37128300Y3198000D01*
X37135591Y3234000D01*
X37135591Y4818103D01*
X40074400Y4818103D01*
X40074400Y3802000D01*
X40326400Y3550000D01*
X42150000Y3550000D01*
X42150000Y5373600D01*
X42250000Y5373600D01*
X42250000Y3550000D01*
X44073600Y3550000D01*
X44325600Y3802000D01*
X44325600Y4818103D01*
X44172141Y5188586D01*
X43888586Y5472141D01*
X43518104Y5625600D01*
X42502000Y5625600D01*
X42250000Y5373600D01*
X42150000Y5373600D01*
X41898000Y5625600D01*
X40881896Y5625600D01*
X40511414Y5472141D01*
X40227859Y5188586D01*
X40074400Y4818103D01*
X37135591Y4818103D01*
X37135591Y5266000D01*
X37065862Y5636578D01*
X36846851Y5976931D01*
X36512678Y6205262D01*
X36350000Y6238205D01*
X36350000Y10700000D01*
X36254849Y11178354D01*
X36161570Y11317956D01*
X35983884Y11583883D01*
X32549798Y15017968D01*
X32550346Y15646079D01*
X32246506Y16381429D01*
X31684388Y16944529D01*
X30949570Y17249652D01*
X30153921Y17250346D01*
X29418571Y16946506D01*
X28855471Y16384388D01*
X28550348Y15649570D01*
X28549654Y14853921D01*
X28853494Y14118571D01*
X28871616Y14100417D01*
X28805471Y14034388D01*
X28500348Y13299570D01*
X28499654Y12503921D01*
X18130847Y12503921D01*
X18013638Y13093169D01*
X17641575Y13650000D01*
X18013638Y14206831D01*
X18155496Y14920000D01*
X18013638Y15633169D01*
X17641575Y16190000D01*
X18013638Y16746831D01*
X18155496Y17460000D01*
X18013638Y18173169D01*
X17609660Y18777764D01*
X17005065Y19181742D01*
X16291896Y19323600D01*
X15908104Y19323600D01*
X15350000Y19212586D01*
X15350000Y24752080D01*
X23088000Y24752080D01*
X23088000Y23687920D01*
X23222124Y23013632D01*
X23604078Y22441998D01*
X24175712Y22060044D01*
X24850000Y21925920D01*
X25524288Y22060044D01*
X26095922Y22441998D01*
X26120000Y22478033D01*
X26144078Y22441998D01*
X26715712Y22060044D01*
X27390000Y21925920D01*
X28064288Y22060044D01*
X28635922Y22441998D01*
X28660000Y22478033D01*
X28684078Y22441998D01*
X29255712Y22060044D01*
X29930000Y21925920D01*
X30604288Y22060044D01*
X31175922Y22441998D01*
X31200000Y22478033D01*
X31224078Y22441998D01*
X31795712Y22060044D01*
X32470000Y21925920D01*
X33144288Y22060044D01*
X33715922Y22441998D01*
X33754728Y22500075D01*
X33793776Y22445065D01*
X34378844Y22077598D01*
X34683837Y21992311D01*
X34960000Y22214824D01*
X34960000Y24170000D01*
X34940000Y24170000D01*
X34940000Y24270000D01*
X34960000Y24270000D01*
X34960000Y26225176D01*
X35060000Y26225176D01*
X35060000Y24270000D01*
X35080000Y24270000D01*
X35080000Y24170000D01*
X35060000Y24170000D01*
X35060000Y22214824D01*
X35336163Y21992311D01*
X35641156Y22077598D01*
X36226224Y22445065D01*
X36265272Y22500075D01*
X36304078Y22441998D01*
X36875712Y22060044D01*
X37550000Y21925920D01*
X38224288Y22060044D01*
X38795922Y22441998D01*
X39177876Y23013632D01*
X39312000Y23687920D01*
X39312000Y24752080D01*
X39177876Y25426368D01*
X38795922Y25998002D01*
X38224288Y26379956D01*
X37550000Y26514080D01*
X36875712Y26379956D01*
X36304078Y25998002D01*
X36265272Y25939925D01*
X36226224Y25994935D01*
X35641156Y26362402D01*
X35336163Y26447689D01*
X35060000Y26225176D01*
X34960000Y26225176D01*
X34683837Y26447689D01*
X34378844Y26362402D01*
X33793776Y25994935D01*
X33754728Y25939925D01*
X33715922Y25998002D01*
X33144288Y26379956D01*
X32470000Y26514080D01*
X31795712Y26379956D01*
X31224078Y25998002D01*
X31200000Y25961967D01*
X31175922Y25998002D01*
X30604288Y26379956D01*
X29930000Y26514080D01*
X29255712Y26379956D01*
X28684078Y25998002D01*
X28660000Y25961967D01*
X28635922Y25998002D01*
X28064288Y26379956D01*
X27390000Y26514080D01*
X26715712Y26379956D01*
X26144078Y25998002D01*
X26120000Y25961967D01*
X26095922Y25998002D01*
X25524288Y26379956D01*
X24850000Y26514080D01*
X24175712Y26379956D01*
X23604078Y25998002D01*
X23222124Y25426368D01*
X23088000Y24752080D01*
X15350000Y24752080D01*
X15350000Y27025000D01*
X55000000Y27025000D01*
X55000000Y16978890D01*
X55000000Y16978890D01*
G37*
X55000000Y16978890D02*
X54984388Y16994529D01*
X54249570Y17299652D01*
X53453921Y17300346D01*
X52718571Y16996506D01*
X52155471Y16434388D01*
X51850348Y15699570D01*
X51849654Y14903921D01*
X51950000Y14661065D01*
X51950000Y10870000D01*
X52064181Y10295975D01*
X52389340Y9809340D01*
X52429894Y9768786D01*
X52429654Y9493921D01*
X52733494Y8758571D01*
X53295612Y8195471D01*
X54030430Y7890348D01*
X54826079Y7889654D01*
X55000000Y7961517D01*
X55000000Y6738883D01*
X54829570Y6809652D01*
X54033921Y6810346D01*
X53298571Y6506506D01*
X52851285Y6060000D01*
X50888645Y6060000D01*
X51044529Y6215612D01*
X51349652Y6950430D01*
X51350346Y7746079D01*
X51046506Y8481429D01*
X50484388Y9044529D01*
X49749570Y9349652D01*
X48953921Y9350346D01*
X48218571Y9046506D01*
X47819568Y8648199D01*
X45342127Y11125640D01*
X48116351Y11125640D01*
X48187414Y10744773D01*
X48920819Y10428151D01*
X49719563Y10416292D01*
X50462044Y10711002D01*
X50512586Y10744773D01*
X50583649Y11125640D01*
X49350000Y12359289D01*
X48116351Y11125640D01*
X45342127Y11125640D01*
X44407330Y12060437D01*
X47336292Y12060437D01*
X47631002Y11317956D01*
X47664773Y11267414D01*
X48045640Y11196351D01*
X49279289Y12430000D01*
X49420711Y12430000D01*
X50654360Y11196351D01*
X51035227Y11267414D01*
X51351849Y12000819D01*
X51363708Y12799563D01*
X51068998Y13542044D01*
X51035227Y13592586D01*
X50654360Y13663649D01*
X49420711Y12430000D01*
X49279289Y12430000D01*
X48045640Y13663649D01*
X47664773Y13592586D01*
X47348151Y12859181D01*
X47336292Y12060437D01*
X44407330Y12060437D01*
X43299798Y13167968D01*
X43300292Y13734360D01*
X48116351Y13734360D01*
X49350000Y12500711D01*
X50583649Y13734360D01*
X50512586Y14115227D01*
X49779181Y14431849D01*
X48980437Y14443708D01*
X48237956Y14148998D01*
X48187414Y14115227D01*
X48116351Y13734360D01*
X43300292Y13734360D01*
X43300346Y13796079D01*
X42996506Y14531429D01*
X42434388Y15094529D01*
X41699570Y15399652D01*
X40903921Y15400346D01*
X40168571Y15096506D01*
X39605471Y14534388D01*
X39300348Y13799570D01*
X39299654Y13003921D01*
X39603494Y12268571D01*
X39821703Y12049981D01*
X39455471Y11684388D01*
X39150348Y10949570D01*
X39149654Y10153921D01*
X39453494Y9418571D01*
X40015612Y8855471D01*
X40750430Y8550348D01*
X41382437Y8549797D01*
X46006117Y3926116D01*
X46381024Y3675612D01*
X46411646Y3655151D01*
X46890000Y3560000D01*
X47989287Y3560000D01*
X48045638Y3503649D01*
X47664773Y3432586D01*
X47348151Y2699181D01*
X47336292Y1900437D01*
X47624237Y1175000D01*
X37031152Y1175000D01*
X37079151Y1286269D01*
X37090649Y1344089D01*
X36871294Y1660000D01*
X35150000Y1660000D01*
X35150000Y1640000D01*
X35050000Y1640000D01*
X35050000Y1660000D01*
X33328706Y1660000D01*
X33109351Y1344089D01*
X33120849Y1286269D01*
X33168848Y1175000D01*
X32631152Y1175000D01*
X32679151Y1286269D01*
X32690649Y1344089D01*
X32471294Y1660000D01*
X30750000Y1660000D01*
X30750000Y1640000D01*
X30650000Y1640000D01*
X30650000Y1660000D01*
X28928706Y1660000D01*
X28709351Y1344089D01*
X28720849Y1286269D01*
X28768848Y1175000D01*
X15350000Y1175000D01*
X15350000Y5416809D01*
X17116000Y5416809D01*
X17486578Y5486538D01*
X17826931Y5705549D01*
X18055262Y6039722D01*
X18135591Y6436400D01*
X18135591Y8163600D01*
X18065862Y8534178D01*
X17846851Y8874531D01*
X17824225Y8889991D01*
X18000667Y9169963D01*
X18092476Y9497937D01*
X17871228Y9790000D01*
X16150000Y9790000D01*
X16150000Y9770000D01*
X16050000Y9770000D01*
X16050000Y9790000D01*
X16030000Y9790000D01*
X16030000Y9890000D01*
X16050000Y9890000D01*
X16050000Y9910000D01*
X16150000Y9910000D01*
X16150000Y9890000D01*
X17871228Y9890000D01*
X18092476Y10182063D01*
X18000667Y10510037D01*
X17631790Y11095356D01*
X18013638Y11666831D01*
X18155496Y12380000D01*
X18130847Y12503921D01*
X28499654Y12503921D01*
X28803494Y11768571D01*
X29365612Y11205471D01*
X29450000Y11170430D01*
X29450000Y6241561D01*
X29313422Y6215862D01*
X28973069Y5996851D01*
X28744738Y5662678D01*
X28664409Y5266000D01*
X28664409Y3234000D01*
X28734138Y2863422D01*
X28914627Y2582934D01*
X28720849Y2133731D01*
X28709351Y2075911D01*
X28928706Y1760000D01*
X30650000Y1760000D01*
X30650000Y1780000D01*
X30750000Y1780000D01*
X30750000Y1760000D01*
X32471294Y1760000D01*
X32690649Y2075911D01*
X32679151Y2133731D01*
X32483853Y2586458D01*
X32655262Y2837322D01*
X32735591Y3234000D01*
X32735591Y5266000D01*
X32665862Y5636578D01*
X32446851Y5976931D01*
X32112678Y6205262D01*
X31950000Y6238205D01*
X31950000Y11521509D01*
X32194529Y11765612D01*
X32215681Y11816552D01*
X33850000Y10182233D01*
X33850000Y6241561D01*
X33713422Y6215862D01*
X33373069Y5996851D01*
X33144738Y5662678D01*
X33064409Y5266000D01*
X33064409Y3234000D01*
X33134138Y2863422D01*
X33314627Y2582934D01*
X33120849Y2133731D01*
X33109351Y2075911D01*
X33328706Y1760000D01*
X35050000Y1760000D01*
X35050000Y1780000D01*
X35150000Y1780000D01*
X35150000Y1760000D01*
X36871294Y1760000D01*
X37090649Y2075911D01*
X37079151Y2133731D01*
X36883853Y2586458D01*
X37055262Y2837322D01*
X37128300Y3198000D01*
X40074400Y3198000D01*
X40074400Y2181897D01*
X40227859Y1811414D01*
X40511414Y1527859D01*
X40881896Y1374400D01*
X41898000Y1374400D01*
X42150000Y1626400D01*
X42150000Y3450000D01*
X42250000Y3450000D01*
X42250000Y1626400D01*
X42502000Y1374400D01*
X43518104Y1374400D01*
X43888586Y1527859D01*
X44172141Y1811414D01*
X44325600Y2181897D01*
X44325600Y3198000D01*
X44073600Y3450000D01*
X42250000Y3450000D01*
X42150000Y3450000D01*
X40326400Y3450000D01*
X40074400Y3198000D01*
X37128300Y3198000D01*
X37135591Y3234000D01*
X37135591Y4818103D01*
X40074400Y4818103D01*
X40074400Y3802000D01*
X40326400Y3550000D01*
X42150000Y3550000D01*
X42150000Y5373600D01*
X42250000Y5373600D01*
X42250000Y3550000D01*
X44073600Y3550000D01*
X44325600Y3802000D01*
X44325600Y4818103D01*
X44172141Y5188586D01*
X43888586Y5472141D01*
X43518104Y5625600D01*
X42502000Y5625600D01*
X42250000Y5373600D01*
X42150000Y5373600D01*
X41898000Y5625600D01*
X40881896Y5625600D01*
X40511414Y5472141D01*
X40227859Y5188586D01*
X40074400Y4818103D01*
X37135591Y4818103D01*
X37135591Y5266000D01*
X37065862Y5636578D01*
X36846851Y5976931D01*
X36512678Y6205262D01*
X36350000Y6238205D01*
X36350000Y10700000D01*
X36254849Y11178354D01*
X36161570Y11317956D01*
X35983884Y11583883D01*
X32549798Y15017968D01*
X32550346Y15646079D01*
X32246506Y16381429D01*
X31684388Y16944529D01*
X30949570Y17249652D01*
X30153921Y17250346D01*
X29418571Y16946506D01*
X28855471Y16384388D01*
X28550348Y15649570D01*
X28549654Y14853921D01*
X28853494Y14118571D01*
X28871616Y14100417D01*
X28805471Y14034388D01*
X28500348Y13299570D01*
X28499654Y12503921D01*
X18130847Y12503921D01*
X18013638Y13093169D01*
X17641575Y13650000D01*
X18013638Y14206831D01*
X18155496Y14920000D01*
X18013638Y15633169D01*
X17641575Y16190000D01*
X18013638Y16746831D01*
X18155496Y17460000D01*
X18013638Y18173169D01*
X17609660Y18777764D01*
X17005065Y19181742D01*
X16291896Y19323600D01*
X15908104Y19323600D01*
X15350000Y19212586D01*
X15350000Y24752080D01*
X23088000Y24752080D01*
X23088000Y23687920D01*
X23222124Y23013632D01*
X23604078Y22441998D01*
X24175712Y22060044D01*
X24850000Y21925920D01*
X25524288Y22060044D01*
X26095922Y22441998D01*
X26120000Y22478033D01*
X26144078Y22441998D01*
X26715712Y22060044D01*
X27390000Y21925920D01*
X28064288Y22060044D01*
X28635922Y22441998D01*
X28660000Y22478033D01*
X28684078Y22441998D01*
X29255712Y22060044D01*
X29930000Y21925920D01*
X30604288Y22060044D01*
X31175922Y22441998D01*
X31200000Y22478033D01*
X31224078Y22441998D01*
X31795712Y22060044D01*
X32470000Y21925920D01*
X33144288Y22060044D01*
X33715922Y22441998D01*
X33754728Y22500075D01*
X33793776Y22445065D01*
X34378844Y22077598D01*
X34683837Y21992311D01*
X34960000Y22214824D01*
X34960000Y24170000D01*
X34940000Y24170000D01*
X34940000Y24270000D01*
X34960000Y24270000D01*
X34960000Y26225176D01*
X35060000Y26225176D01*
X35060000Y24270000D01*
X35080000Y24270000D01*
X35080000Y24170000D01*
X35060000Y24170000D01*
X35060000Y22214824D01*
X35336163Y21992311D01*
X35641156Y22077598D01*
X36226224Y22445065D01*
X36265272Y22500075D01*
X36304078Y22441998D01*
X36875712Y22060044D01*
X37550000Y21925920D01*
X38224288Y22060044D01*
X38795922Y22441998D01*
X39177876Y23013632D01*
X39312000Y23687920D01*
X39312000Y24752080D01*
X39177876Y25426368D01*
X38795922Y25998002D01*
X38224288Y26379956D01*
X37550000Y26514080D01*
X36875712Y26379956D01*
X36304078Y25998002D01*
X36265272Y25939925D01*
X36226224Y25994935D01*
X35641156Y26362402D01*
X35336163Y26447689D01*
X35060000Y26225176D01*
X34960000Y26225176D01*
X34683837Y26447689D01*
X34378844Y26362402D01*
X33793776Y25994935D01*
X33754728Y25939925D01*
X33715922Y25998002D01*
X33144288Y26379956D01*
X32470000Y26514080D01*
X31795712Y26379956D01*
X31224078Y25998002D01*
X31200000Y25961967D01*
X31175922Y25998002D01*
X30604288Y26379956D01*
X29930000Y26514080D01*
X29255712Y26379956D01*
X28684078Y25998002D01*
X28660000Y25961967D01*
X28635922Y25998002D01*
X28064288Y26379956D01*
X27390000Y26514080D01*
X26715712Y26379956D01*
X26144078Y25998002D01*
X26120000Y25961967D01*
X26095922Y25998002D01*
X25524288Y26379956D01*
X24850000Y26514080D01*
X24175712Y26379956D01*
X23604078Y25998002D01*
X23222124Y25426368D01*
X23088000Y24752080D01*
X15350000Y24752080D01*
X15350000Y27025000D01*
X55000000Y27025000D01*
X55000000Y16978890D01*
G36*
X49434853Y2284142D02*
X49420711Y2270000D01*
X49434853Y2255858D01*
X49364142Y2185147D01*
X49350000Y2199289D01*
X49335858Y2185147D01*
X49265147Y2255858D01*
X49279289Y2270000D01*
X49265147Y2284142D01*
X49335858Y2354853D01*
X49350000Y2340711D01*
X49364142Y2354853D01*
X49434853Y2284142D01*
X49434853Y2284142D01*
G37*
X49434853Y2284142D02*
X49420711Y2270000D01*
X49434853Y2255858D01*
X49364142Y2185147D01*
X49350000Y2199289D01*
X49335858Y2185147D01*
X49265147Y2255858D01*
X49279289Y2270000D01*
X49265147Y2284142D01*
X49335858Y2354853D01*
X49350000Y2340711D01*
X49364142Y2354853D01*
X49434853Y2284142D01*
M02*
